<svg width="168" height="50" viewBox="0 0 168 50" fill="none" xmlns="http://www.w3.org/2000/svg">
<path d="M6.53337 41C5.35737 41 4.76937 40.412 4.76937 39.236V14.288C4.76937 13.112 5.35737 12.524 6.53337 12.524H21.9894C22.5354 12.524 22.9624 12.685 23.2704 13.007C23.5924 13.315 23.7534 13.742 23.7534 14.288C23.7534 15.464 23.1654 16.052 21.9894 16.052H8.29737V24.872H16.7394C17.9154 24.872 18.5034 25.46 18.5034 26.636C18.5034 27.812 17.9154 28.4 16.7394 28.4H8.29737V39.236C8.29737 40.412 7.70937 41 6.53337 41ZM29.2833 16.262C27.9533 16.262 27.2883 15.59 27.2883 14.246V13.007C27.2883 11.691 27.9533 11.033 29.2833 11.033H30.5013C31.7753 11.033 32.4123 11.691 32.4123 13.007V14.246C32.4123 15.59 31.7753 16.262 30.5013 16.262H29.2833ZM29.8713 41C28.6953 41 28.1073 40.412 28.1073 39.236V21.47C28.1073 20.294 28.6953 19.706 29.8713 19.706C31.0473 19.706 31.6353 20.294 31.6353 21.47V39.236C31.6353 40.412 31.0473 41 29.8713 41ZM49.3589 41C46.5869 41 44.5429 40.342 43.2269 39.026C41.9109 37.71 41.2529 35.68 41.2529 32.936V23.234H39.1949C38.0189 23.234 37.4309 22.646 37.4309 21.47C37.4309 20.294 38.0189 19.706 39.1949 19.706H41.2529V16.64C41.2529 15.464 41.8409 14.876 43.0169 14.876C44.1929 14.876 44.7809 15.464 44.7809 16.64V19.706H49.6109C50.7869 19.706 51.3749 20.294 51.3749 21.47C51.3749 22.646 50.7869 23.234 49.6109 23.234H44.7809V32.936C44.7809 34.714 45.1029 35.918 45.7469 36.548C46.3909 37.164 47.5949 37.472 49.3589 37.472C49.9049 37.472 50.3319 37.612 50.6399 37.892C50.9619 38.172 51.1229 38.62 51.1229 39.236C51.1229 40.412 50.5349 41 49.3589 41Z" fill="#9AEDFF"/>
<path d="M59.3947 41C58.2187 41 57.6307 40.412 57.6307 39.236V21.47C57.6307 20.294 58.2187 19.706 59.3947 19.706C60.5707 19.706 61.1587 20.294 61.1587 21.47V23.108C61.9847 21.988 63.0347 21.141 64.3087 20.567C65.5967 19.993 67.0667 19.706 68.7187 19.706C69.8947 19.706 70.4827 20.294 70.4827 21.47C70.4827 22.646 69.8947 23.234 68.7187 23.234C66.2967 23.234 64.4487 23.682 63.1747 24.578C61.9007 25.474 61.2287 26.657 61.1587 28.127V39.236C61.1587 40.412 60.5707 41 59.3947 41ZM76.7305 16.262C75.4005 16.262 74.7355 15.59 74.7355 14.246V13.007C74.7355 11.691 75.4005 11.033 76.7305 11.033H77.9485C79.2225 11.033 79.8595 11.691 79.8595 13.007V14.246C79.8595 15.59 79.2225 16.262 77.9485 16.262H76.7305ZM77.3185 41C76.1425 41 75.5545 40.412 75.5545 39.236V21.47C75.5545 20.294 76.1425 19.706 77.3185 19.706C78.4945 19.706 79.0825 20.294 79.0825 21.47V39.236C79.0825 40.412 78.4945 41 77.3185 41ZM96.8062 41C94.0342 41 91.9902 40.342 90.6742 39.026C89.3582 37.71 88.7002 35.68 88.7002 32.936V23.234H86.6422C85.4662 23.234 84.8782 22.646 84.8782 21.47C84.8782 20.294 85.4662 19.706 86.6422 19.706H88.7002V16.64C88.7002 15.464 89.2882 14.876 90.4642 14.876C91.6402 14.876 92.2282 15.464 92.2282 16.64V19.706H97.0582C98.2342 19.706 98.8222 20.294 98.8222 21.47C98.8222 22.646 98.2342 23.234 97.0582 23.234H92.2282V32.936C92.2282 34.714 92.5502 35.918 93.1942 36.548C93.8382 37.164 95.0422 37.472 96.8062 37.472C97.3522 37.472 97.7792 37.612 98.0872 37.892C98.4092 38.172 98.5702 38.62 98.5702 39.236C98.5702 40.412 97.9822 41 96.8062 41ZM106.59 16.262C105.26 16.262 104.595 15.59 104.595 14.246V13.007C104.595 11.691 105.26 11.033 106.59 11.033H107.808C109.082 11.033 109.719 11.691 109.719 13.007V14.246C109.719 15.59 109.082 16.262 107.808 16.262H106.59ZM107.178 41C106.002 41 105.414 40.412 105.414 39.236V21.47C105.414 20.294 106.002 19.706 107.178 19.706C108.354 19.706 108.942 20.294 108.942 21.47V39.236C108.942 40.412 108.354 41 107.178 41ZM124.902 41C122.116 41 120.044 40.328 118.686 38.984C117.342 37.64 116.67 35.582 116.67 32.81V27.938C116.67 25.124 117.342 23.052 118.686 21.722C120.044 20.378 122.116 19.706 124.902 19.706H128.346C131.146 19.706 133.218 20.378 134.562 21.722C135.906 23.066 136.578 25.138 136.578 27.938V32.768C136.578 35.554 135.906 37.626 134.562 38.984C133.218 40.328 131.146 41 128.346 41H124.902ZM120.198 32.81C120.198 34.616 120.527 35.848 121.185 36.506C121.843 37.15 123.082 37.472 124.902 37.472H128.346C130.18 37.472 131.419 37.143 132.063 36.485C132.721 35.827 133.05 34.588 133.05 32.768V27.938C133.05 26.104 132.721 24.865 132.063 24.221C131.419 23.563 130.18 23.234 128.346 23.234H124.902C123.684 23.234 122.732 23.374 122.046 23.654C121.374 23.92 120.898 24.396 120.618 25.082C120.338 25.754 120.198 26.706 120.198 27.938V32.81ZM146.061 41C144.885 41 144.297 40.412 144.297 39.236V21.47C144.297 20.294 144.885 19.706 146.061 19.706C147.237 19.706 147.825 20.294 147.825 21.47V22.163C149.309 20.525 151.493 19.706 154.377 19.706H155.553C158.353 19.706 160.425 20.378 161.769 21.722C163.113 23.066 163.785 25.138 163.785 27.938V39.236C163.785 40.412 163.197 41 162.021 41C160.845 41 160.257 40.412 160.257 39.236V27.938C160.257 26.104 159.921 24.865 159.249 24.221C158.591 23.563 157.359 23.234 155.553 23.234H154.377C152.697 23.234 151.234 23.43 149.988 23.822C148.742 24.2 148.021 24.802 147.825 25.628V39.236C147.825 40.412 147.237 41 146.061 41Z" fill="#F9F9F9"/>
</svg>
