<svg width="512" height="512" viewBox="0 0 512 512" fill="none" xmlns="http://www.w3.org/2000/svg">
<rect width="512" height="512" fill="#D9D9D9"/>
<circle cx="256" cy="256" r="186" fill="#D9D9D9" stroke="#2B1E60" stroke-width="12"/>
<path d="M284.127 388.621C289.926 398.665 302.769 402.107 312.813 396.308C322.858 390.509 326.299 377.665 320.5 367.621L284.127 388.621ZM320.5 367.621L191.5 144.187L155.127 165.187L284.127 388.621L320.5 367.621Z" fill="#2B1E60"/>
<line x1="218.313" y1="384.121" x2="347.313" y2="160.687" stroke="#2B1E60" stroke-width="42" stroke-linecap="round"/>
<path d="M460 240L460 272" stroke="#2B1E60" stroke-width="16" stroke-linecap="round"/>
<path d="M472 256L460 256" stroke="#2B1E60" stroke-width="16" stroke-linecap="round"/>
<path d="M52 272L52 240" stroke="#2B1E60" stroke-width="16" stroke-linecap="round"/>
<path d="M40 256L52 256" stroke="#2B1E60" stroke-width="16" stroke-linecap="round"/>
<path d="M165.184 196.391C172.778 209.544 189.597 214.051 202.75 206.457C215.903 198.863 220.41 182.044 212.816 168.891L165.184 196.391ZM212.816 168.891L192.816 134.25L145.184 161.75L165.184 196.391L212.816 168.891Z" fill="#2B1E60"/>
<path d="M331 186.641L346 160.66" stroke="#2B1E60" stroke-width="65" stroke-linecap="round"/>
<line x1="170.536" y1="179.981" x2="155.536" y2="154" stroke="#D9D9D9" stroke-width="8"/>
<line x1="183.536" y1="172.981" x2="168.536" y2="147" stroke="#D9D9D9" stroke-width="8"/>
<line x1="195.536" y1="165.981" x2="180.536" y2="140" stroke="#D9D9D9" stroke-width="8"/>
<path d="M256 113L256 138" stroke="#261C50" stroke-width="12" stroke-linecap="round"/>
<path d="M256 113L256 138" stroke="#261C50" stroke-width="12" stroke-linecap="round"/>
<path d="M163.243 331.243L145.565 348.92" stroke="#504289" stroke-width="12" stroke-linecap="round"/>
<path d="M358 331L375.678 348.678" stroke="#504289" stroke-width="12" stroke-linecap="round"/>
</svg>
