<svg width="512" height="512" viewBox="0 0 512 512" fill="none" xmlns="http://www.w3.org/2000/svg">
<rect width="512" height="512" fill="#D9D9D9"/>
<circle cx="256" cy="256" r="186" fill="#D9D9D9" stroke="#2B1E60" stroke-width="12"/>
<path d="M284.127 388.621C289.926 398.665 302.769 402.107 312.813 396.308C322.858 390.509 326.299 377.665 320.5 367.621L284.127 388.621ZM320.5 367.621L191.5 144.187L155.127 165.187L284.127 388.621L320.5 367.621Z" fill="#2B1E60"/>
<line x1="218.313" y1="384.121" x2="347.313" y2="160.687" stroke="#2B1E60" stroke-width="42" stroke-linecap="round"/>
<rect x="17" y="224" width="479" height="64" fill="#D9D9D9"/>
<path d="M460 240L460 272" stroke="#2B1E60" stroke-width="16" stroke-linecap="round"/>
<path d="M472 256L460 256" stroke="#2B1E60" stroke-width="16" stroke-linecap="round"/>
<path d="M52 272L52 240" stroke="#2B1E60" stroke-width="16" stroke-linecap="round"/>
<path d="M40 256L52 256" stroke="#2B1E60" stroke-width="16" stroke-linecap="round"/>
<path d="M165.184 196.391C172.778 209.544 189.597 214.051 202.75 206.457C215.903 198.863 220.41 182.044 212.816 168.891L165.184 196.391ZM212.816 168.891L192.816 134.25L145.184 161.75L165.184 196.391L212.816 168.891Z" fill="#2B1E60"/>
<path d="M331 186.641L346 160.66" stroke="#2B1E60" stroke-width="65" stroke-linecap="round"/>
<line x1="170.536" y1="179.981" x2="155.536" y2="154" stroke="#D9D9D9" stroke-width="8"/>
<line x1="183.536" y1="172.981" x2="168.536" y2="147" stroke="#D9D9D9" stroke-width="8"/>
<line x1="195.536" y1="165.981" x2="180.536" y2="140" stroke="#D9D9D9" stroke-width="8"/>
<path d="M256 113L256 138" stroke="#261C50" stroke-width="12" stroke-linecap="round"/>
<path d="M256 113L256 138" stroke="#261C50" stroke-width="12" stroke-linecap="round"/>
<path d="M163.243 331.243L145.565 348.92" stroke="#504289" stroke-width="12" stroke-linecap="round"/>
<path d="M358 331L375.678 348.678" stroke="#504289" stroke-width="12" stroke-linecap="round"/>
<path d="M99.6035 270H92.5996V238.719H99.6035V270ZM111.785 257.453H97.7129V251.824H111.785V257.453ZM113.203 244.369H97.7129V238.719H113.203V244.369ZM145.387 270H138.662V246.754H145.387V270ZM138.254 240.781C138.254 239.779 138.59 238.962 139.264 238.332C139.951 237.688 140.861 237.365 141.992 237.365C143.124 237.365 144.026 237.688 144.699 238.332C145.387 238.962 145.73 239.779 145.73 240.781C145.73 241.77 145.387 242.586 144.699 243.23C144.026 243.875 143.124 244.197 141.992 244.197C140.861 244.197 139.951 243.875 139.264 243.23C138.59 242.586 138.254 241.77 138.254 240.781ZM184.016 251.631H170.18V246.754H184.016V251.631ZM180.127 241.018V262.609C180.127 263.225 180.206 263.705 180.363 264.049C180.521 264.378 180.771 264.607 181.115 264.736C181.473 264.865 181.924 264.93 182.469 264.93C182.855 264.93 183.192 264.915 183.479 264.887C183.779 264.858 184.037 264.822 184.252 264.779V269.828C183.693 270.029 183.099 270.179 182.469 270.279C181.839 270.38 181.137 270.43 180.363 270.43C178.931 270.43 177.692 270.193 176.646 269.721C175.615 269.248 174.813 268.496 174.24 267.465C173.682 266.419 173.402 265.066 173.402 263.404V241.018H180.127ZM215.941 270H209.217V246.754H215.533L215.941 252.254V270ZM222.688 253.092C222.372 253.049 221.993 253.013 221.549 252.984C221.105 252.941 220.711 252.92 220.367 252.92C219.25 252.92 218.326 253.092 217.596 253.436C216.88 253.765 216.35 254.266 216.006 254.939C215.662 255.598 215.476 256.436 215.447 257.453L214.158 256.787C214.158 254.739 214.416 252.927 214.932 251.352C215.462 249.776 216.221 248.544 217.209 247.656C218.212 246.768 219.415 246.324 220.818 246.324C221.148 246.324 221.499 246.346 221.871 246.389C222.243 246.432 222.544 246.503 222.773 246.604L222.688 253.092ZM254.613 270H247.889V246.754H254.613V270ZM247.48 240.781C247.48 239.779 247.817 238.962 248.49 238.332C249.178 237.688 250.087 237.365 251.219 237.365C252.35 237.365 253.253 237.688 253.926 238.332C254.613 238.962 254.957 239.779 254.957 240.781C254.957 241.77 254.613 242.586 253.926 243.23C253.253 243.875 252.35 244.197 251.219 244.197C250.087 244.197 249.178 243.875 248.49 243.23C247.817 242.586 247.48 241.77 247.48 240.781ZM293.242 251.631H279.406V246.754H293.242V251.631ZM289.354 241.018V262.609C289.354 263.225 289.432 263.705 289.59 264.049C289.747 264.378 289.998 264.607 290.342 264.736C290.7 264.865 291.151 264.93 291.695 264.93C292.082 264.93 292.419 264.915 292.705 264.887C293.006 264.858 293.264 264.822 293.479 264.779V269.828C292.92 270.029 292.326 270.179 291.695 270.279C291.065 270.38 290.363 270.43 289.59 270.43C288.158 270.43 286.919 270.193 285.873 269.721C284.842 269.248 284.04 268.496 283.467 267.465C282.908 266.419 282.629 265.066 282.629 263.404V241.018H289.354ZM325.512 270H318.787V246.754H325.512V270ZM318.379 240.781C318.379 239.779 318.715 238.962 319.389 238.332C320.076 237.688 320.986 237.365 322.117 237.365C323.249 237.365 324.151 237.688 324.824 238.332C325.512 238.962 325.855 239.779 325.855 240.781C325.855 241.77 325.512 242.586 324.824 243.23C324.151 243.875 323.249 244.197 322.117 244.197C320.986 244.197 320.076 243.875 319.389 243.23C318.715 242.586 318.379 241.77 318.379 240.781ZM351.4 258.162C351.4 255.899 351.83 253.88 352.689 252.104C353.549 250.313 354.802 248.902 356.449 247.871C358.096 246.84 360.102 246.324 362.465 246.324C364.871 246.324 366.898 246.84 368.545 247.871C370.206 248.902 371.46 250.313 372.305 252.104C373.164 253.88 373.594 255.899 373.594 258.162V258.613C373.594 260.862 373.164 262.882 372.305 264.672C371.46 266.462 370.214 267.873 368.566 268.904C366.919 269.921 364.9 270.43 362.508 270.43C360.13 270.43 358.111 269.921 356.449 268.904C354.802 267.873 353.549 266.462 352.689 264.672C351.83 262.882 351.4 260.862 351.4 258.613V258.162ZM358.125 258.613C358.125 259.802 358.261 260.883 358.533 261.857C358.805 262.831 359.264 263.605 359.908 264.178C360.553 264.751 361.419 265.037 362.508 265.037C363.596 265.037 364.463 264.751 365.107 264.178C365.752 263.605 366.21 262.831 366.482 261.857C366.755 260.883 366.891 259.802 366.891 258.613V258.162C366.891 257.002 366.755 255.935 366.482 254.961C366.21 253.973 365.752 253.185 365.107 252.598C364.463 252.01 363.582 251.717 362.465 251.717C361.391 251.717 360.531 252.01 359.887 252.598C359.257 253.185 358.805 253.973 358.533 254.961C358.261 255.935 358.125 257.002 358.125 258.162V258.613ZM405.777 270H399.074V246.754H405.369L405.777 251.717V270ZM403.113 257.711C403.113 255.333 403.493 253.299 404.252 251.609C405.011 249.905 406.071 248.602 407.432 247.699C408.807 246.783 410.396 246.324 412.201 246.324C413.662 246.324 414.937 246.611 416.025 247.184C417.128 247.757 417.988 248.695 418.604 249.998C419.234 251.301 419.549 253.07 419.549 255.305V270H412.803V255.262C412.803 254.331 412.667 253.615 412.395 253.113C412.137 252.598 411.743 252.247 411.213 252.061C410.697 251.86 410.067 251.76 409.322 251.76C408.549 251.76 407.883 251.903 407.324 252.189C406.766 252.476 406.3 252.884 405.928 253.414C405.57 253.93 405.305 254.546 405.133 255.262C404.961 255.978 404.875 256.766 404.875 257.625L403.113 257.711Z" fill="#100F0F"/>
</svg>
